<svg width="64" height="64" viewBox="0 0 64 64" fill="none" xmlns="http://www.w3.org/2000/svg">
  <defs>
    <linearGradient id="bg" x1="11" y1="9" x2="53" y2="56" gradientUnits="userSpaceOnUse">
      <stop stop-color="#FFFDF8"/>
      <stop offset="0.55" stop-color="#E8F0E8"/>
      <stop offset="1" stop-color="#DEE8F0"/>
    </linearGradient>
    <linearGradient id="crest" x1="32" y1="16" x2="32" y2="47" gradientUnits="userSpaceOnUse">
      <stop stop-color="#2B6758"/>
      <stop offset="1" stop-color="#1D3957"/>
    </linearGradient>
    <linearGradient id="stem" x1="23" y1="45" x2="38" y2="28" gradientUnits="userSpaceOnUse">
      <stop stop-color="#986F4E"/>
      <stop offset="1" stop-color="#3C624E"/>
    </linearGradient>
    <linearGradient id="leafLeft" x1="19" y1="26" x2="31" y2="37" gradientUnits="userSpaceOnUse">
      <stop stop-color="#80AC97"/>
      <stop offset="1" stop-color="#315D4E"/>
    </linearGradient>
    <linearGradient id="leafRight" x1="31" y1="23" x2="44" y2="35" gradientUnits="userSpaceOnUse">
      <stop stop-color="#AAC4D3"/>
      <stop offset="1" stop-color="#254361"/>
    </linearGradient>
  </defs>

  <rect x="8" y="8" width="48" height="48" rx="16" fill="url(#bg)"/>
  <rect x="8.75" y="8.75" width="46.5" height="46.5" rx="15.25" stroke="white" stroke-opacity="0.86" stroke-width="1.5"/>

  <path d="M32 18.5C37.1 21.1 40.4 25.6 40.4 31.9C40.4 38.2 37 42.9 32 46.3C27 42.9 23.6 38.2 23.6 31.9C23.6 25.6 26.9 21.1 32 18.5Z" fill="url(#crest)" fill-opacity="0.08" stroke="url(#crest)" stroke-width="1.8"/>
  <path d="M26.1 44.5C25.1 38.6 26.7 33.6 31 29.5C32.7 27.8 34.8 26.1 37.4 24.2" stroke="url(#stem)" stroke-width="2.2" stroke-linecap="round"/>
  <path d="M31.8 25.7C30.6 19.7 24.8 15.4 18.8 15.8C19.9 21.5 25.8 26.1 31.8 25.7Z" fill="url(#leafLeft)"/>
  <path d="M35.6 23.8C36.8 17.9 42.4 13.8 48.4 14.2C47.2 19.8 41.5 24.2 35.6 23.8Z" fill="url(#leafRight)"/>

  <path d="M49.3 36.8C49.3 40 46.7 42.6 43.5 42.6C40.3 42.6 37.7 40 37.7 36.8C37.7 33.6 40.3 31 43.5 31C46.7 31 49.3 33.6 49.3 36.8Z" fill="#E36F47"/>
  <path d="M43.5 33.5V37.6" stroke="white" stroke-width="1.5" stroke-linecap="round"/>
  <circle cx="43.5" cy="39.8" r="1" fill="white"/>
</svg>
