<svg width="220" height="220" viewBox="0 0 220 220" fill="none" xmlns="http://www.w3.org/2000/svg">
  <defs>
    <linearGradient id="b-bg" x1="40" y1="30" x2="180" y2="192" gradientUnits="userSpaceOnUse">
      <stop stop-color="#FFFDF8"/>
      <stop offset="0.56" stop-color="#E8F0E8"/>
      <stop offset="1" stop-color="#DEE8F0"/>
    </linearGradient>
    <linearGradient id="b-crest" x1="110" y1="56" x2="110" y2="162" gradientUnits="userSpaceOnUse">
      <stop stop-color="#2B6758"/>
      <stop offset="1" stop-color="#1D3957"/>
    </linearGradient>
    <linearGradient id="b-stem" x1="82" y1="144" x2="136" y2="82" gradientUnits="userSpaceOnUse">
      <stop stop-color="#986F4E"/>
      <stop offset="1" stop-color="#3C624E"/>
    </linearGradient>
    <linearGradient id="b-leaf-left" x1="70" y1="74" x2="108" y2="110" gradientUnits="userSpaceOnUse">
      <stop stop-color="#80AC97"/>
      <stop offset="1" stop-color="#315D4E"/>
    </linearGradient>
    <linearGradient id="b-leaf-right" x1="111" y1="64" x2="150" y2="102" gradientUnits="userSpaceOnUse">
      <stop stop-color="#AAC4D3"/>
      <stop offset="1" stop-color="#254361"/>
    </linearGradient>
    <filter id="b-shadow" x="18" y="18" width="184" height="184" filterUnits="userSpaceOnUse" color-interpolation-filters="sRGB">
      <feDropShadow dx="0" dy="16" stdDeviation="14" flood-color="#173229" flood-opacity="0.15"/>
    </filter>
  </defs>

  <g filter="url(#b-shadow)">
    <rect x="28" y="24" width="164" height="164" rx="52" fill="url(#b-bg)"/>
    <rect x="29" y="25" width="162" height="162" rx="51" stroke="white" stroke-opacity="0.86" stroke-width="2"/>
  </g>

  <path d="M110 58C127.5 66.4 138.2 81.5 138.2 102.7C138.2 123.7 127.2 139.6 110 150.8C92.8 139.6 81.8 123.7 81.8 102.7C81.8 81.5 92.5 66.4 110 58Z" fill="url(#b-crest)" fill-opacity="0.08" stroke="url(#b-crest)" stroke-width="4"/>
  <path d="M110 70.5C121.7 77.6 127.8 88.6 127.8 103.4C127.8 116.5 123.1 127.6 113.7 136.6" stroke="#23463B" stroke-opacity="0.24" stroke-width="3.2" stroke-linecap="round"/>
  <path d="M110 70.5C98.3 77.6 92.2 88.6 92.2 103.4C92.2 116.5 96.9 127.6 106.3 136.6" stroke="#284B6D" stroke-opacity="0.2" stroke-width="3.2" stroke-linecap="round"/>

  <path d="M89 144.6C85.8 126.2 90.7 110.6 103.8 97.8C109 92.8 115.7 87.4 123.7 81.6" stroke="url(#b-stem)" stroke-width="6.2" stroke-linecap="round"/>
  <path d="M106.2 86.1C102.5 67.2 84.3 53.6 65.5 54.8C68.8 72.7 87.2 87 106.2 86.1Z" fill="url(#b-leaf-left)"/>
  <path d="M118 79.9C121.7 61.2 139.3 48.3 158 49.8C154.6 67.6 136.9 81.1 118 79.9Z" fill="url(#b-leaf-right)"/>
  <path d="M84.6 62.8C90.4 68.7 92.1 75.6 89.8 83.3" stroke="#EEF5EF" stroke-opacity="0.9" stroke-width="1.9" stroke-linecap="round"/>
  <path d="M137.8 58.8C142.5 65 143.6 71.8 140.8 78.8" stroke="#F0F6FA" stroke-opacity="0.88" stroke-width="1.9" stroke-linecap="round"/>

  <path d="M67 115.4C72.5 109.6 79.2 106.2 87 105.3" stroke="#8E6749" stroke-opacity="0.56" stroke-width="2.6" stroke-linecap="round"/>
  <path d="M133.5 113.1C138.3 109.8 143.5 108.3 149.2 108.5" stroke="#315470" stroke-opacity="0.42" stroke-width="2.4" stroke-linecap="round"/>

  <path d="M155 118C155 128.1 146.8 136.3 136.7 136.3C126.6 136.3 118.4 128.1 118.4 118C118.4 107.9 126.6 99.7 136.7 99.7C146.8 99.7 155 107.9 155 118Z" fill="#E36F47"/>
  <path d="M136.7 107.3V120.4" stroke="white" stroke-width="3.1" stroke-linecap="round"/>
  <circle cx="136.7" cy="125.1" r="2.2" fill="white"/>
</svg>
