<svg width="1600" height="960" viewBox="0 0 1600 960" fill="none" xmlns="http://www.w3.org/2000/svg">
  <defs>
    <linearGradient id="mist" x1="800" y1="240" x2="800" y2="960" gradientUnits="userSpaceOnUse">
      <stop stop-color="#F6F5EF" stop-opacity="0"/>
      <stop offset="0.5" stop-color="#E7EEE7" stop-opacity="0.22"/>
      <stop offset="1" stop-color="#DCE6E8" stop-opacity="0.42"/>
    </linearGradient>
    <linearGradient id="treesA" x1="0" y1="960" x2="0" y2="420" gradientUnits="userSpaceOnUse">
      <stop stop-color="#214252" stop-opacity="0.4"/>
      <stop offset="1" stop-color="#214252" stop-opacity="0"/>
    </linearGradient>
    <linearGradient id="treesB" x1="0" y1="960" x2="0" y2="460" gradientUnits="userSpaceOnUse">
      <stop stop-color="#2F5B4B" stop-opacity="0.46"/>
      <stop offset="1" stop-color="#2F5B4B" stop-opacity="0"/>
    </linearGradient>
  </defs>

  <rect width="1600" height="960" fill="url(#mist)"/>

  <g opacity="0.42">
    <path d="M0 960V690C112 656 223 660 333 704C430 742 514 756 617 734C712 714 804 664 909 660C1026 655 1115 708 1208 742C1303 776 1417 782 1600 708V960H0Z" fill="url(#treesA)"/>
    <path d="M0 960V764C123 728 256 712 381 742C498 770 574 820 687 824C838 828 949 720 1087 706C1272 688 1406 766 1600 742V960H0Z" fill="url(#treesB)"/>
  </g>

  <g opacity="0.24">
    <rect x="164" y="330" width="12" height="400" rx="6" fill="#284E42"/>
    <rect x="242" y="286" width="18" height="468" rx="9" fill="#274B5A"/>
    <rect x="416" y="350" width="14" height="368" rx="7" fill="#264A3E"/>
    <rect x="612" y="264" width="20" height="504" rx="10" fill="#29485A"/>
    <rect x="782" y="312" width="15" height="428" rx="7.5" fill="#2E594A"/>
    <rect x="972" y="268" width="18" height="492" rx="9" fill="#234352"/>
    <rect x="1148" y="326" width="13" height="404" rx="6.5" fill="#2B5547"/>
    <rect x="1328" y="284" width="19" height="470" rx="9.5" fill="#234252"/>
  </g>

  <g opacity="0.2">
    <ellipse cx="172" cy="320" rx="84" ry="78" fill="#DCE8DE"/>
    <ellipse cx="251" cy="280" rx="96" ry="84" fill="#D8E5EB"/>
    <ellipse cx="423" cy="336" rx="76" ry="70" fill="#DBE7DD"/>
    <ellipse cx="622" cy="248" rx="98" ry="90" fill="#D7E3E9"/>
    <ellipse cx="789" cy="300" rx="88" ry="76" fill="#DCE7DF"/>
    <ellipse cx="980" cy="258" rx="96" ry="84" fill="#D6E2E8"/>
    <ellipse cx="1154" cy="316" rx="78" ry="72" fill="#DCE6DE"/>
    <ellipse cx="1338" cy="276" rx="98" ry="86" fill="#D8E3EA"/>
  </g>

  <g opacity="0.12">
    <path d="M154 372C180 330 201 296 231 248" stroke="#F8FAF7" stroke-width="10" stroke-linecap="round"/>
    <path d="M408 392C432 352 448 320 470 280" stroke="#F7FAF8" stroke-width="8" stroke-linecap="round"/>
    <path d="M594 328C624 286 646 246 676 202" stroke="#F8FBF9" stroke-width="10" stroke-linecap="round"/>
    <path d="M776 366C798 326 816 288 844 246" stroke="#F8FAF8" stroke-width="8" stroke-linecap="round"/>
    <path d="M966 330C996 286 1022 244 1050 200" stroke="#F8FBF9" stroke-width="10" stroke-linecap="round"/>
    <path d="M1136 388C1162 348 1182 314 1210 270" stroke="#F7FAF8" stroke-width="8" stroke-linecap="round"/>
    <path d="M1318 350C1342 308 1366 268 1392 228" stroke="#F8FBF9" stroke-width="10" stroke-linecap="round"/>
  </g>
</svg>
